:version 1.10
:name ASF
:units
  mass 1
  length 1
  angle deg
:documentation
  ASF file generated by Kaydara
:root
  axis xyz
  order  tx ty tz rx ry rz
  position 0 0 0
  orientation 0 0 0
:bonedata
  begin
    id 1
    name RightUpLegDummy
    direction -0.718183 -0.695806 0.00816078
    length 4.904
    axis 0 0 0 xyz
  end
  begin
    id 2
    name RightUpLeg
    direction -0.0736652 -0.994202 0.0783343
    length 17.4976
    axis -2.72909 -3.00389 -4.00133 xyz
    dof rx ry rz
  end
  begin
    id 3
    name RightLeg
    direction -0.0389037 -0.994596 -0.0962598
    length 16.5821
    axis 3.95836 -18.5909 -4.46993 xyz
    dof rx ry rz
  end
  begin
    id 4
    name RightFoot
    direction -0.311643 -0.412678 0.855906
    length 3.77069
    axis -1.99483 -18.8351 -3.27644 xyz
    dof rx ry rz
  end
  begin
    id 5
    name RightToes
    direction -0.317852 0.0389852 0.947339
    length 3.85082
    axis -2.00228 -18.1713 -3.25211 xyz
    dof rx ry rz
  end
  begin
    id 6
    name SpineDummy
    direction 8.3039e-015 1 4.44677e-016
    length 4.6813
    axis 0 0 0 xyz
  end
  begin
    id 7
    name Spine
    direction -0.000262373 0.999988 0.00493267
    length 10.1015
    axis -0.00246081 0.00062579 0.0150362 xyz
    dof rx ry rz
  end
  begin
    id 8
    name Spine1
    direction 0 0 0
    length 0
    axis -0.00349562 0.000650293 0.0196666 xyz
    dof rx ry rz
  end
  begin
    id 9
    name HEadDummy
    direction -0.000343232 0.999999 0.00123745
    length 3.43865
    axis -0.00349562 0.000650293 0.0196666 xyz
  end
  begin
    id 10
    name HEad
    direction -0.0461221 0.980933 0.188796
    length 5.12695
    axis -0.00351404 -7.04812 0.0199272 xyz
    dof rx ry rz
  end
  begin
    id 11
    name LeftShoulder1Dummy
    direction 0.998904 -0.0399089 -0.0244534
    length 3.5433
    axis -0.00349562 0.000650293 0.0196666 xyz
  end
  begin
    id 12
    name LeftShoulder1
    direction 0.99951 1.64443e-005 0.0312999
    length 4.05031
    axis -0.00349562 0.000650293 0.0196666 xyz
    dof rx ry rz
  end
  begin
    id 13
    name LeftArm
    direction 0.984791 0.0515299 0.165927
    length 12.9126
    axis -64.823 -10.7743 5.20463 xyz
    dof rx ry rz
  end
  begin
    id 14
    name LeftForeArm
    direction 0.984968 0.0534808 0.16425
    length 10.8596
    axis -30.0462 -7.70601 1.87451 xyz
    dof rx ry rz
  end
  begin
    id 15
    name LeftHand
    direction 0.975871 0.0289682 0.216418
    length 6.62295
    axis -20.1348 -6.98077 1.86072 xyz
    dof rx ry rz
  end
  begin
    id 16
    name RightShoulderDummy
    direction -0.998877 -0.0405946 -0.0244307
    length 3.5433
    axis -0.00349562 0.000650293 0.0196666 xyz
  end
  begin
    id 17
    name RightShoulder
    direction -0.998933 -0.0249743 -0.0388558
    length 4.05031
    axis -0.0205316 -4.02113 1.41395 xyz
    dof rx ry rz
  end
  begin
    id 18
    name RightArm
    direction -0.997559 0.068664 0.0127103
    length 12.9638
    axis -67.3882 1.84188 -6.15987 xyz
    dof rx ry rz
  end
  begin
    id 19
    name RightForeArm
    direction -0.991508 0.0912848 0.0926241
    length 10.8312
    axis -22.1975 3.41087 -4.28711 xyz
    dof rx ry rz
  end
  begin
    id 20
    name RightHand
    direction -0.989262 0.0600788 0.133232
    length 6.57864
    axis -12.2911 2.17515 -4.39675 xyz
    dof rx ry rz
  end
  begin
    id 21
    name LeftUpLegDummy
    direction 0.718183 -0.695806 0.00816078
    length 4.904
    axis 0 0 0 xyz
  end
  begin
    id 22
    name LeftUpLeg
    direction 0.0831398 -0.99469 0.0606531
    length 17.4976
    axis -1.71016 2.29552 4.63832 xyz
    dof rx ry rz
  end
  begin
    id 23
    name LeftLeg
    direction 0.0498442 -0.991778 -0.117862
    length 16.5821
    axis 5.13757 15.5727 5.13348 xyz
    dof rx ry rz
  end
  begin
    id 24
    name LeftFoot
    direction 0.269026 -0.433896 0.85986
    length 3.77069
    axis -0.576502 15.6961 4.10267 xyz
    dof rx ry rz
  end
  begin
    id 25
    name LeftToes
    direction 0.277311 0.0251143 0.960452
    length 3.85048
    axis -0.576502 15.6961 4.10267 xyz
    dof rx ry rz
  end
:hierarchy
  begin
    root RightUpLegDummy SpineDummy LeftUpLegDummy
    RightUpLegDummy RightUpLeg
    RightUpLeg RightLeg
    RightLeg RightFoot
    RightFoot RightToes
    SpineDummy Spine
    Spine Spine1
    Spine1 HEadDummy LeftShoulder1Dummy RightShoulderDummy
    HEadDummy HEad
    LeftShoulder1Dummy LeftShoulder1
    LeftShoulder1 LeftArm
    LeftArm LeftForeArm
    LeftForeArm LeftHand
    RightShoulderDummy RightShoulder
    RightShoulder RightArm
    RightArm RightForeArm
    RightForeArm RightHand
    LeftUpLegDummy LeftUpLeg
    LeftUpLeg LeftLeg
    LeftLeg LeftFoot
    LeftFoot LeftToes
  end

:SAMPLES-PER-SECOND 30
:FULLY-SPECIFIED
:DEGREES
137
root  -0.55602 18.1476 -67.383 41.6888 12.8482 -0.293978
RightUpLeg  -66.6698 -11.0019 24.1501
RightLeg  126.03 31.8519 -19.6651
RightFoot  -42.0704 4.80436 17.9682
RightToes  5.82077e-011 -3.18055e-015 -2.98177e-016
Spine  43.7646 -6.8396 7.44991
Spine1  0.0105855 -4.88216 6.91925
HEad  -15.4209 -1.04966 7.16157
LeftShoulder1  -3.88251e-019 9.70628e-020 -3.87848e-018
LeftArm  -9.76702 4.0587 -60.4818
LeftForeArm  16.8907 -7.63406 -5.24838
LeftHand  -14.106 -11.5179 82.2227
RightShoulder  5.12034 9.3859 24.9319
RightArm  10.4143 19.5126 71.781
RightForeArm  13.5818 14.5634 -6.33462
RightHand  -10.6803 9.29265 -72.6163
LeftUpLeg  -44.6829 -7.16746 22.6416
LeftLeg  114.218 -13.2642 0.036508
LeftFoot  -41.3393 -7.91417 -30.308
LeftToes  9.37148e-011 4.50685e-012 -4.11107e-011
138
root  -0.63893 18.1507 -67.292 42.0716 12.3986 -0.321015
RightUpLeg  -66.286 -9.84257 22.5843
RightLeg  127.538 30.0361 -16.9354
RightFoot  -42.3658 4.76455 17.6281
RightToes  5.82077e-011 -3.18055e-015 -2.98177e-016
Spine  43.7189 -7.44555 8.00657
Spine1  -0.0123804 -5.30093 6.92634
HEad  -15.51 -0.132814 7.2082
LeftShoulder1  -3.88251e-019 9.70628e-020 -3.87848e-018
LeftArm  -9.57897 4.93602 -59.5251
LeftForeArm  15.4503 -7.59482 -5.23195
LeftHand  -13.9127 -11.3991 81.8453
RightShoulder  5.05451 9.33292 24.6533
RightArm  10.8219 19.0726 73.5699
RightForeArm  14.3617 15.214 -6.99442
RightHand  -10.6454 9.39237 -72.0689
LeftUpLeg  -44.4929 -6.26432 21.8435
LeftLeg  113.472 -14.1062 1.83224
LeftFoot  -41.8997 -7.66709 -28.8096
LeftToes  9.37148e-011 4.50685e-012 -4.11107e-011
139
root  -0.753368 18.1545 -67.1824 42.3873 11.8937 -0.428855
RightUpLeg  -65.7633 -8.49049 21.0035
RightLeg  128.819 28.0564 -14.2532
RightFoot  -42.6309 4.45639 16.3107
RightToes  5.82077e-011 -3.18055e-015 -2.98177e-016
Spine  43.7007 -8.13594 8.60791
Spine1  -0.155532 -5.75274 6.76509
HEad  -15.2613 1.01325 7.55839
LeftShoulder1  -3.88251e-019 9.70628e-020 -3.87848e-018
LeftArm  -9.35454 5.98711 -58.4079
LeftForeArm  14.2192 -7.31747 -5.26196
LeftHand  -13.6274 -11.3102 80.969
RightShoulder  4.91429 9.23831 24.02
RightArm  10.3681 18.7311 76.1389
RightForeArm  16.1733 14.7523 -7.03269
RightHand  -10.7679 9.54455 -72.1372
LeftUpLeg  -44.2102 -5.1406 21.0567
LeftLeg  112.612 -14.9284 3.69353
LeftFoot  -42.3411 -7.60061 -28.1273
LeftToes  9.37148e-011 4.50685e-012 -4.11107e-011
140
root  -0.888277 18.1599 -67.0525 42.739 11.5445 -0.555922
RightUpLeg  -65.224 -7.17404 19.7793
RightLeg  129.597 26.2421 -12.0334
RightFoot  -42.9136 4.01695 14.5173
RightToes  5.82077e-011 -3.18055e-015 -2.98177e-016
Spine  43.4854 -8.97209 9.57994
Spine1  -0.370072 -6.18439 6.31593
HEad  -14.8455 2.13633 8.31998
LeftShoulder1  -3.88251e-019 9.70628e-020 -3.87848e-018
LeftArm  -9.06726 6.9507 -57.3893
LeftForeArm  13.6228 -6.60959 -5.43644
LeftHand  -13.0426 -11.1695 78.9583
RightShoulder  4.72311 9.20881 22.9552
RightArm  9.68034 18.0317 78.5846
RightForeArm  17.7253 14.329 -7.09332
RightHand  -11.1209 9.80602 -72.9636
LeftUpLeg  -44.001 -4.0331 20.4748
LeftLeg  111.541 -15.812 5.84964
LeftFoot  -42.0828 -7.68692 -28.7005
LeftToes  9.37148e-011 4.50685e-012 -4.11107e-011
141
root  -1.05266 18.1573 -66.9041 43.4086 11.1334 -0.739402
RightUpLeg  -65.0109 -5.73417 19.1296
RightLeg  129.797 24.9625 -10.6114
RightFoot  -43.3059 3.6994 13.1496
RightToes  5.82077e-011 -3.18055e-015 -2.98177e-016
Spine  42.7238 -9.6338 10.9146
Spine1  -0.532573 -6.3219 5.54901
HEad  -14.5805 3.02777 9.4827
LeftShoulder1  -3.88251e-019 9.70628e-020 -3.87848e-018
LeftArm  -8.75266 7.52983 -56.7713
LeftForeArm  13.4969 -5.41119 -5.87241
LeftHand  -12.1609 -10.923 75.8798
RightShoulder  4.48244 9.29931 21.3741
RightArm  8.49202 16.514 80.2871
RightForeArm  18.5255 14.8997 -7.86842
RightHand  -11.5792 10.2098 -73.7616
LeftUpLeg  -43.9553 -2.65502 20.1004
LeftLeg  110.349 -16.488 7.72121
LeftFoot  -41.6096 -8.03289 -30.4519
LeftToes  9.37148e-011 4.50685e-012 -4.11107e-011
142
root  -1.26641 18.1241 -66.7369 44.5069 10.252 -1.08562
RightUpLeg  -65.3372 -3.9982 19.1616
RightLeg  129.44 24.5869 -10.3283
RightFoot  -43.7489 3.55655 12.4276
RightToes  5.82077e-011 -3.18055e-015 -2.98177e-016
Spine  41.2877 -9.71754 12.3581
Spine1  -0.535463 -5.87346 4.42654
HEad  -14.6235 3.59385 11.0381
LeftShoulder1  -3.88251e-019 9.70628e-020 -3.87848e-018
LeftArm  -8.52195 7.72826 -56.6997
LeftForeArm  13.7727 -4.04701 -6.45212
LeftHand  -11.1955 -10.5363 72.6646
RightShoulder  4.38166 9.54901 20.3431
RightArm  6.66622 14.4487 81.0377
RightForeArm  19.5618 16.0313 -9.05921
RightHand  -11.9636 10.615 -74.1621
LeftUpLeg  -44.0185 -0.631717 19.8183
LeftLeg  109.282 -16.713 8.62819
LeftFoot  -41.4919 -8.56654 -32.5399
LeftToes  9.37148e-011 4.50685e-012 -4.11107e-011
143
root  -1.51189 18.059 -66.55 45.7184 9.04282 -1.54004
RightUpLeg  -65.8475 -2.3725 19.8146
RightLeg  128.627 25.0907 -11.1531
RightFoot  -44.111 3.46849 11.9559
RightToes  5.82077e-011 -3.18055e-015 -2.98177e-016
Spine  39.3796 -9.3303 14.1164
Spine1  -0.368429 -4.80544 2.65742
HEad  -14.797 3.60052 12.9238
LeftShoulder1  -3.88251e-019 9.70628e-020 -3.87848e-018
LeftArm  -8.36561 7.68498 -57.2323
LeftForeArm  15.3052 -2.90989 -6.91924
LeftHand  -10.24 -9.98994 69.7536
RightShoulder  4.44285 9.81229 20.254
RightArm  4.48136 12.5558 80.7497
RightForeArm  21.2924 16.6479 -9.86389
RightHand  -12.2472 10.8135 -74.7843
LeftUpLeg  -44.0096 1.56352 19.6417
LeftLeg  108.35 -16.6548 8.85315
LeftFoot  -41.1884 -8.79671 -33.7363
LeftToes  9.37148e-011 4.50685e-012 -4.11107e-011
144
root  -1.73326 18.0133 -66.3418 46.582 8.00762 -1.86557
RightUpLeg  -65.9166 -1.37455 20.5943
RightLeg  127.567 25.8313 -12.3678
RightFoot  -44.4063 3.35828 11.443
RightToes  5.82077e-011 -3.18055e-015 -2.98177e-016
Spine  37.4174 -8.76688 16.5994
Spine1  -0.168256 -3.21492 0.126389
HEad  -14.8397 2.58064 14.824
LeftShoulder1  -3.88251e-019 9.70628e-020 -3.87848e-018
LeftArm  -8.25626 7.37539 -58.5328
LeftForeArm  18.8665 -2.132 -7.11984
LeftHand  -9.22784 -9.50653 65.9396
RightShoulder  4.2083 9.85095 18.8268
RightArm  1.43123 10.6424 79.7601
RightForeArm  22.4105 16.7579 -10.4317
RightHand  -12.5159 10.8192 -75.9773
LeftUpLeg  -43.7217 3.03927 19.6226
LeftLeg  107.435 -16.428 8.63965
LeftFoot  -40.1843 -8.64248 -34.3823
LeftToes  9.37148e-011 4.50685e-012 -4.11107e-011
145
root  -1.9119 18.0584 -66.0894 47.0001 7.04619 -1.91015
RightUpLeg  -65.3291 -0.703922 20.6364
RightLeg  126.477 26.0505 -13.0521
RightFoot  -44.7286 3.25188 10.9425
RightToes  5.82077e-011 -3.18055e-015 -2.98177e-016
Spine  35.8292 -7.90903 19.2729
Spine1  -0.0628392 -1.23298 -2.42564
HEad  -14.8194 0.563124 16.2318
LeftShoulder1  -3.88251e-019 9.70628e-020 -3.87848e-018
LeftArm  -8.22094 6.86232 -60.3855
LeftForeArm  23.4133 -2.11144 -7.01828
LeftHand  -8.28675 -9.67276 59.8815
RightShoulder  3.85511 9.89001 16.7106
RightArm  -1.73105 8.63636 77.5862
RightForeArm  22.5759 16.9088 -10.9431
RightHand  -12.8387 10.9059 -77.1117
LeftUpLeg  -43.2457 3.81083 19.4822
LeftLeg  106.689 -15.9866 7.74343
LeftFoot  -38.4095 -8.54194 -36.3621
LeftToes  9.37148e-011 4.50685e-012 -4.11107e-011
146
root  -2.09928 18.2093 -65.7573 47.1619 5.57351 -1.70194
RightUpLeg  -64.2305 0.345179 19.5299
RightLeg  125.355 25.6277 -13.0184
RightFoot  -45.066 3.18472 10.583
RightToes  5.82077e-011 -3.18055e-015 -2.98177e-016
Spine  35.0224 -6.62774 20.83
Spine1  -0.200167 0.754786 -3.94577
HEad  -14.9921 -1.42185 16.8822
LeftShoulder1  -3.88251e-019 9.70628e-020 -3.87848e-018
LeftArm  -7.96474 6.62518 -61.7039
LeftForeArm  26.8351 -3.87383 -6.67556
LeftHand  -7.703 -10.9351 52.5102
RightShoulder  4.34213 10.3282 18.8381
RightArm  -2.13831 7.8506 73.5861
RightForeArm  23.5056 16.6528 -10.8954
RightHand  -13.2192 11.2432 -77.6161
LeftUpLeg  -43.2101 4.61801 18.8384
LeftLeg  106.663 -15.6113 6.7116
LeftFoot  -34.8494 -7.94999 -39.334
LeftToes  9.37148e-011 4.50685e-012 -4.11107e-011
147
root  -2.32047 18.3871 -65.3718 47.1203 3.61319 -1.27699
RightUpLeg  -62.8077 1.69097 17.7983
RightLeg  124.218 25.0695 -12.8062
RightFoot  -45.3734 3.17138 10.427
RightToes  5.82077e-011 -3.18055e-015 -2.98177e-016
Spine  35.3904 -4.80162 20.81
Spine1  -1.26609 2.70718 -4.04267
HEad  -15.3679 -3.27885 17.0352
LeftShoulder1  -3.88251e-019 9.70628e-020 -3.87848e-018
LeftArm  -7.32644 6.49661 -62.4483
LeftForeArm  29.0981 -7.25842 -6.17894
LeftHand  -7.53985 -12.7228 46.8928
RightShoulder  4.74826 10.6473 20.5956
RightArm  -3.2803 6.64376 69.6581
RightForeArm  24.7331 16.9239 -11.1539
RightHand  -13.4669 11.5646 -77.5923
LeftUpLeg  -44.4066 5.58481 17.7992
LeftLeg  108.144 -15.675 6.41979
LeftFoot  -28.9429 -5.75688 -38.9555
LeftToes  9.37148e-011 4.50685e-012 -4.11107e-011
